<?xml version="1.0" standalone="no"?>
<!DOCTYPE svg PUBLIC "-//W3C//DTD SVG 20010904//EN"
 "http://www.w3.org/TR/2001/REC-SVG-20010904/DTD/svg10.dtd">
<svg version="1.0" xmlns="http://www.w3.org/2000/svg"
 width="225.000000pt" height="225.000000pt" viewBox="0 0 225.000000 225.000000"
 preserveAspectRatio="xMidYMid meet">
<metadata>
Created by potrace 1.14, written by Peter Selinger 2001-2017
</metadata>
<g transform="translate(0.000000,225.000000) scale(0.100000,-0.100000)"
fill="#000000" stroke="none">
<path d="M945 2006 c-339 -79 -593 -316 -687 -643 -31 -104 -33 -361 -4 -463
88 -317 334 -561 651 -646 99 -27 341 -27 440 0 320 86 565 331 651 651 26 98
26 351 0 445 -86 311 -319 547 -631 641 -91 27 -329 36 -420 15z m331 -53 c10
-4 -12 -25 -65 -64 -44 -33 -83 -59 -86 -59 -2 0 -41 27 -86 60 -88 64 -88 63
1 74 42 5 216 -3 236 -11z m-278 -104 l102 -74 -2 -145 -3 -144 -169 -124
-168 -123 -123 41 c-67 23 -127 45 -132 48 -6 4 -15 78 -20 167 l-10 160 61
63 c34 35 91 83 127 107 75 51 196 106 219 101 9 -1 62 -36 118 -77z m454 52
c92 -39 191 -107 266 -183 51 -51 62 -67 58 -88 -3 -14 -8 -87 -12 -162 l-6
-137 -82 -29 c-44 -16 -104 -37 -133 -46 l-51 -17 -169 123 -168 124 -3 144
-3 145 108 78 c59 42 112 77 118 77 5 0 40 -13 77 -29z m-1021 -485 l3 -88
-62 -25 c-35 -14 -66 -23 -69 -20 -11 11 28 131 70 217 l42 85 6 -40 c4 -22 8
-80 10 -129z m1487 -10 c27 -83 35 -126 24 -126 -5 0 -35 11 -68 24 l-59 24 3
59 c1 32 5 89 8 127 l6 69 33 -58 c18 -31 42 -85 53 -119z m-631 -88 c85 -62
157 -118 160 -125 3 -7 -23 -96 -57 -198 l-62 -185 -203 0 -203 0 -63 187
c-41 123 -59 191 -53 200 10 16 305 232 317 233 5 0 78 -50 164 -112z m-675
-89 l125 -43 66 -201 67 -200 -79 -115 -79 -115 -103 0 -103 0 -48 59 c-96
120 -160 292 -173 470 -9 115 -4 123 96 162 46 18 89 31 95 29 7 -2 68 -23
136 -46z m1262 15 c94 -35 101 -45 92 -160 -14 -178 -78 -350 -174 -470 l-48
-59 -103 0 -103 0 -79 115 -79 115 67 200 66 201 131 46 c72 25 136 45 141 43
6 -1 45 -15 89 -31z m-461 -608 c42 -63 77 -120 77 -127 0 -8 -12 -49 -26 -91
-23 -69 -29 -78 -57 -87 -184 -60 -380 -60 -564 0 -28 9 -34 18 -57 87 -14 42
-26 83 -26 91 0 7 35 64 77 127 l77 114 211 0 211 0 77 -114z m-692 -203 c10
-29 15 -53 12 -53 -9 0 -142 90 -149 101 -4 6 17 9 57 7 l62 -3 18 -52z m944
48 c-6 -11 -139 -101 -148 -101 -5 0 4 31 28 98 3 8 26 12 65 12 36 0 59 -4
55 -9z"/>
</g>
</svg>
